<svg width="88" height="88" viewBox="0 0 88 88" fill="none" xmlns="http://www.w3.org/2000/svg">
<g filter="url(#filter0_d)">
<circle opacity="0.1" cx="44" cy="40" r="40" fill="white"/>
<path d="M56.3743 27.6364C54.7522 25.9982 52.8224 24.6967 50.6958 23.8066C48.5692 22.9166 46.2877 22.4554 43.9823 22.4498C41.6769 22.4441 39.3931 22.894 37.2621 23.7736C35.1312 24.6532 33.195 25.9452 31.5648 27.5753C29.9347 29.2055 28.6427 31.1417 27.7631 33.2727C26.8835 35.4036 26.4336 37.6874 26.4393 39.9928C26.4449 42.2982 26.9061 44.5797 27.7962 46.7063C28.6862 48.8329 29.9877 50.7627 31.6259 52.3848C33.248 54.023 35.1778 55.3245 37.3044 56.2146C39.4311 57.1047 41.7126 57.5658 44.018 57.5715C46.3233 57.5772 48.6071 57.1273 50.7381 56.2477C52.8691 55.3681 54.8052 54.0761 56.4354 52.4459C58.0655 50.8158 59.3575 48.8796 60.2371 46.7486C61.1168 44.6176 61.5667 42.3338 61.561 40.0285C61.5553 37.7231 61.0942 35.4416 60.2041 33.3149C59.314 31.1883 58.0125 29.2585 56.3743 27.6364ZM29.0001 40.0106C28.9996 38.6831 29.1756 37.3613 29.5236 36.0802C30.097 37.3145 30.9298 38.3809 31.4962 39.6473C32.2282 41.2755 34.1939 40.8239 35.0618 42.2505C35.8322 43.5169 35.0095 45.1184 35.5861 46.4434C36.0048 47.4052 36.9923 47.6153 37.6736 48.3184C38.3697 49.0278 38.3548 49.9997 38.4611 50.9247C38.581 52.0115 38.7754 53.0888 39.0431 54.1489C39.0431 54.1567 39.0431 54.1653 39.0493 54.1731C33.2032 52.12 29.0001 46.5473 29.0001 40.0106ZM44.0001 55.0106C43.1624 55.0104 42.3262 54.9403 41.5001 54.8013C41.5087 54.5895 41.5126 54.3919 41.5337 54.2544C41.7236 53.0122 42.3454 51.7973 43.1845 50.8677C44.0134 49.9505 45.1493 49.3302 45.8493 48.2895C46.5353 47.2739 46.7407 45.9067 46.4579 44.72C46.0415 42.9669 43.6595 42.3817 42.3751 41.4309C41.6368 40.8841 40.9798 40.0387 40.0103 39.97C39.5634 39.9387 39.1892 40.0348 38.7462 39.9208C38.34 39.8153 38.0212 39.5966 37.5884 39.6536C36.7798 39.7598 36.2697 40.6239 35.4009 40.5067C34.5767 40.3966 33.7275 39.4317 33.54 38.6466C33.2993 37.6372 34.0978 37.3098 34.9532 37.22C35.3103 37.1825 35.7111 37.1419 36.054 37.2731C36.5056 37.4403 36.7189 37.8825 37.1243 38.1059C37.8845 38.5231 38.0384 37.8567 37.922 37.1817C37.7478 36.1708 37.5447 35.7591 38.4462 35.063C39.0712 34.5833 39.6056 34.2364 39.5056 33.3747C39.4462 32.8684 39.1689 32.6395 39.4275 32.1356C39.6236 31.752 40.1618 31.4059 40.5126 31.177C41.4181 30.5864 44.3915 30.6302 43.1767 28.977C42.8197 28.4919 42.1611 27.6247 41.5361 27.5059C40.7548 27.3583 40.4079 28.2302 39.8634 28.6145C39.3009 29.0122 38.2056 29.4637 37.6423 28.8489C36.8845 28.0216 38.1447 27.7505 38.4236 27.1723C38.5525 26.9028 38.4236 26.5286 38.2064 26.1762C38.4881 26.0575 38.7746 25.9473 39.0657 25.8458C39.2482 25.9805 39.4647 26.0617 39.6907 26.0802C40.2134 26.1145 40.7064 25.8317 41.1626 26.188C41.6689 26.5786 42.0337 27.0723 42.7056 27.1942C43.3556 27.3122 44.0439 26.9333 44.2048 26.2677C44.3025 25.863 44.2048 25.4356 44.1111 25.0177C47.0329 25.0345 49.8855 25.9095 52.3142 27.5341C52.1579 27.4747 51.9712 27.4817 51.7407 27.5887C51.2665 27.8091 50.5947 28.37 50.5392 28.9262C50.4759 29.5575 51.4071 29.6466 51.8493 29.6466C52.5134 29.6466 53.1861 29.3497 52.972 28.5825C52.879 28.2497 52.7525 27.9036 52.5486 27.6942C53.0387 28.0343 53.5083 28.4032 53.9548 28.7989C53.9478 28.8059 53.9407 28.8122 53.9337 28.82C53.4837 29.2887 52.9611 29.6598 52.6532 30.2302C52.4361 30.6317 52.1915 30.8223 51.7517 30.9262C51.5095 30.9833 51.2329 31.0044 51.0298 31.1669C50.4642 31.6122 50.7861 32.6825 51.322 33.0036C51.9993 33.4091 53.004 33.2184 53.515 32.6395C53.9142 32.1864 54.1493 31.3997 54.8673 31.4005C55.1834 31.3998 55.487 31.5236 55.7126 31.745C56.0095 32.0528 55.9509 32.3403 56.0142 32.7247C56.1259 33.4075 56.7282 33.0372 57.0946 32.6927C57.3617 33.168 57.6027 33.6575 57.8165 34.1591C57.4134 34.7395 57.0931 35.3723 56.1236 34.6958C55.5431 34.2903 55.1861 33.702 54.4571 33.5192C53.8204 33.363 53.1681 33.5255 52.5392 33.6341C51.8243 33.7583 50.9767 33.813 50.4345 34.3544C49.9103 34.8762 49.6329 35.5747 49.0751 36.0989C47.9962 37.1145 47.5407 38.2231 48.2392 39.6591C48.9111 41.0395 50.3165 41.7887 51.8329 41.6903C53.3228 41.5911 54.8704 40.727 54.8275 42.8919C54.8118 43.6583 54.972 44.1888 55.2071 44.9005C55.4251 45.5567 55.4103 46.1927 55.4603 46.87C55.5078 47.6632 55.6318 48.4499 55.8306 49.2192C54.4303 51.0222 52.6364 52.4812 50.586 53.485C48.5357 54.4887 46.283 55.0105 44.0001 55.0106Z" fill="#3671E9"/>
</g>
<defs>
<filter id="filter0_d" x="0" y="0" width="88" height="88" filterUnits="userSpaceOnUse" color-interpolation-filters="sRGB">
<feFlood flood-opacity="0" result="BackgroundImageFix"/>
<feColorMatrix in="SourceAlpha" type="matrix" values="0 0 0 0 0 0 0 0 0 0 0 0 0 0 0 0 0 0 127 0" result="hardAlpha"/>
<feOffset dy="4"/>
<feGaussianBlur stdDeviation="2"/>
<feComposite in2="hardAlpha" operator="out"/>
<feColorMatrix type="matrix" values="0 0 0 0 0 0 0 0 0 0 0 0 0 0 0 0 0 0 0.25 0"/>
<feBlend mode="normal" in2="BackgroundImageFix" result="effect1_dropShadow"/>
<feBlend mode="normal" in="SourceGraphic" in2="effect1_dropShadow" result="shape"/>
</filter>
</defs>
</svg>
